<svg width="172" height="45" viewBox="0 0 172 45" fill="none" xmlns="http://www.w3.org/2000/svg">
<path d="M40.0405 21.8266C40.0405 21.1589 39.9692 20.499 39.8243 19.8469C39.8176 19.7728 39.817 19.6981 39.803 19.6251C39.3672 17.3258 38.4691 15.222 37.119 13.3125C36.3614 12.242 35.501 11.2626 34.485 10.4274C34.4182 10.3634 34.3547 10.2955 34.2839 10.237C31.4719 7.91867 28.2488 6.6657 24.6044 6.51462C23.5862 6.4725 22.5702 6.51743 21.5655 6.71175C21.4818 6.71849 21.397 6.71849 21.315 6.73366C19.1696 7.13858 17.154 7.88105 15.3326 9.09976C11.4322 11.709 9.01889 15.3197 8.22701 19.948C7.69347 23.0667 8.10345 26.0921 9.42494 28.9879C12.4217 35.5543 19.6161 39.8889 27.4086 38.0917C33.656 36.6506 37.6756 32.6811 39.5306 26.5454C39.9945 25.011 40.1197 23.4267 40.0405 21.8266ZM38.3596 26.2084C36.6618 31.6741 33.1444 35.4077 27.5563 36.768C21.329 38.2832 16.1779 36.2496 12.2342 31.2377C10.1904 28.6408 9.15761 25.6406 9.21827 22.3225C9.29409 18.1974 10.9043 14.7132 13.8572 11.8624C15.8577 9.93096 18.2368 8.65945 20.9623 8.05852C20.9977 8.05065 21.0303 8.03156 21.0645 8.01752C21.0802 8.03212 21.0965 8.04335 21.1134 8.05178C21.1285 8.03268 21.1448 8.0164 21.1622 8.00404C21.8328 7.91306 22.5006 7.79624 23.1779 7.75974C27.0301 7.55531 30.4312 8.71224 33.4157 11.1396C34.3777 11.9219 35.2331 12.816 35.952 13.8134C37.4335 15.8712 38.4495 18.1368 38.7606 20.6849C38.8729 21.6014 38.8875 22.5186 38.8606 23.4385H38.8589C38.8589 23.4385 38.8538 23.4413 38.851 23.4435C38.8538 23.4475 38.8566 23.4514 38.86 23.4548C38.7584 24.3848 38.6382 25.3126 38.3596 26.2084Z" fill="white"/>
<path d="M36.4877 22.3248C32.4042 18.2733 28.3184 14.224 24.2388 10.1685C24.0815 10.0124 24.004 9.98544 23.8299 10.1595C20.8461 13.1412 17.8543 16.115 14.8637 19.0904C13.7837 20.1648 12.702 21.2381 11.6209 22.3119C11.4923 22.3933 11.3867 22.4781 11.5748 22.6084C11.7405 22.7662 11.9062 22.9235 12.0719 23.0813C12.1471 23.1633 12.219 23.2487 12.2976 23.3273C16.129 27.1384 19.9632 30.9479 23.7895 34.7652C23.9782 34.9534 24.0692 34.991 24.2809 34.7787C26.4724 32.5805 28.679 30.397 30.8788 28.2066C31.7859 27.3036 32.6856 26.3937 33.5887 25.4867C34.576 24.5179 35.5616 23.5474 36.5523 22.5826C36.6978 22.4405 36.5557 22.3927 36.4877 22.3248ZM24.6437 32.4823V29.9022C24.6426 28.9761 24.6426 28.0494 24.6415 27.1233V27.1025C24.6409 26.6234 24.6409 26.1449 24.6398 25.6664V25.6462C24.6392 25.1144 24.6387 24.5825 24.6375 24.0507V24.045C24.6375 23.8311 24.637 23.6176 24.6364 23.4037V23.3806C24.6364 23.2397 24.6426 23.1549 24.8465 23.1554C26.8419 23.1616 28.8373 23.1627 30.8322 23.1633H30.8491C31.8403 23.1633 32.8316 23.1633 33.8228 23.1639C33.8577 23.1639 33.8925 23.17 33.9902 23.1785C30.8895 26.3089 27.7995 29.3799 24.6437 32.4823ZM24.646 12.5582C24.7707 12.5958 24.8364 12.6874 24.9116 12.761C25.9343 13.7629 26.9554 14.7671 27.9775 15.7696C28.0438 15.8347 28.1157 15.8937 28.1847 15.9555C28.2179 15.988 28.251 16.02 28.2842 16.0521C28.4038 16.2026 28.538 16.339 28.6924 16.4542C28.711 16.5036 28.7447 16.5379 28.7947 16.5553C28.8199 16.612 28.8604 16.653 28.9177 16.6766C29.3759 17.1416 29.8297 17.6106 30.2925 18.0711C31.2916 19.064 32.2952 20.053 33.2966 21.0432C33.3185 21.0993 33.3573 21.1392 33.4134 21.1611C33.432 21.2139 33.4673 21.2499 33.5201 21.2684C33.542 21.3251 33.5808 21.3644 33.6375 21.3863C33.6566 21.4386 33.692 21.4739 33.7442 21.493C33.806 21.5711 33.8678 21.6486 33.9284 21.725C33.8689 21.7997 33.7981 21.7677 33.7386 21.7677C30.8098 21.7682 27.8803 21.7643 24.9515 21.7705C24.7201 21.771 24.6359 21.7385 24.637 21.4734C24.6415 19.9896 24.642 18.5052 24.6409 17.0214V17.0057C24.6448 16.8018 24.6493 16.6002 24.6595 16.3963C24.6684 16.2059 24.6538 16.0133 24.6404 15.8201V15.8049C24.6392 14.7744 24.6376 13.7444 24.637 12.7138C24.637 12.6689 24.642 12.6234 24.646 12.5582ZM23.3059 12.6621C23.3408 12.7267 23.3531 12.8008 23.3498 12.8896C23.3481 12.9328 23.3453 12.9912 23.3593 13.0362V13.6601C23.3172 13.7286 23.3492 13.8269 23.3492 13.9011C23.343 16.4463 23.3441 18.9916 23.3441 21.5368C23.3441 21.5784 23.3464 21.6194 23.3514 21.6587C23.334 21.7306 23.2835 21.7733 23.138 21.7727C20.2109 21.7637 17.2837 21.7665 14.356 21.7665H14.1431C17.2006 18.6962 20.2142 15.6853 23.3059 12.6621ZM23.3604 32.2801C23.3604 32.3048 23.352 32.3289 23.3391 32.4036C20.2255 29.3546 17.177 26.2915 14.0903 23.161H15.7168C18.1767 23.161 20.6371 23.1622 23.0976 23.1594C23.2627 23.1594 23.3672 23.1526 23.3666 23.3834C23.3576 26.3488 23.361 29.3142 23.3604 32.2801Z" fill="white"/>
<path d="M19.5802 32.0403C18.9725 32.0425 18.3643 32.0464 17.7566 32.033C15.9044 31.9908 14.5744 30.6469 14.5514 28.7975C14.5441 28.1898 14.5492 27.5821 14.5469 26.9739C14.5469 26.8829 14.5649 26.7863 14.4874 26.7105C14.1291 26.3612 13.7724 26.0113 13.3731 25.6204C13.4226 26.8037 13.3451 27.9258 13.4203 29.0474C13.577 31.3731 15.3264 33.0939 17.6538 33.1663C18.7096 33.1989 19.7672 33.1759 20.8241 33.177C20.8657 33.177 20.9191 33.1927 20.946 33.1242C20.6102 32.8069 20.2693 32.4896 19.9345 32.1655C19.8318 32.0655 19.7183 32.0397 19.5802 32.0403Z" fill="white"/>
<path d="M28.5155 12.9643C29.1052 12.9575 29.6944 12.9547 30.2835 12.9665C31.9673 12.9991 33.3612 14.2616 33.5443 15.9369C33.6173 16.6069 33.5578 17.2831 33.5679 17.956C33.569 18.0481 33.537 18.1497 33.6004 18.2289C33.9329 18.6389 34.3204 18.9938 34.7186 19.3521C34.704 18.116 34.8304 16.8911 34.6456 15.6763C34.3474 13.7118 32.8215 12.1454 30.9434 11.8978C29.6899 11.7321 28.4268 11.873 27.1682 11.8202C27.4911 12.1623 27.7978 12.4779 28.0932 12.8031C28.2123 12.9339 28.3465 12.9665 28.5155 12.9643Z" fill="white"/>
<path d="M14.4003 18.3261C14.5132 18.2098 14.5486 18.0834 14.5458 17.9239C14.5362 17.391 14.5357 16.858 14.5396 16.325C14.5548 14.4133 15.9493 13.0013 17.8627 12.966C18.4423 12.9558 19.0219 12.9676 19.6015 12.9671C19.6846 12.9671 19.8003 12.9873 19.8458 12.9429C20.2109 12.5807 20.563 12.2061 20.9112 11.8422C19.8087 11.8422 18.695 11.795 17.5864 11.8523C15.3916 11.9663 13.6584 13.6579 13.4304 15.8459C13.3102 17.0023 13.4091 18.1626 13.4254 19.3555C13.75 19.0118 14.0712 18.6653 14.4003 18.3261Z" fill="white"/>
<path d="M34.7119 27.5232C34.7214 26.9031 34.7141 26.2831 34.7141 25.5929C34.3581 25.9596 34.0233 26.25 33.7425 26.5948C33.5802 26.6925 33.5415 26.8397 33.5409 27.0228C33.5398 27.7804 33.6128 28.5436 33.51 29.2945C33.2977 30.8463 32.0375 31.965 30.4554 32.0302C29.7921 32.0577 29.1271 32.0358 28.4627 32.0369C28.3617 32.0375 28.26 32.0195 28.1752 32.1077C27.8354 32.4598 27.4911 32.808 27.1165 33.1905C28.3869 33.159 29.6191 33.2388 30.8496 33.1365C31.0164 33.1231 31.1832 33.0882 31.3467 33.0512C33.1826 32.6328 34.6344 30.9153 34.6563 29.1389C34.667 29.1131 34.6782 29.0884 34.6782 29.0592V29.012C34.754 28.5178 34.7046 28.0191 34.7119 27.5232Z" fill="white"/>
<path d="M154.876 30.3537V13.9634H158.621V16.6951H158.792C159.091 15.749 159.603 15.0198 160.328 14.5076C161.061 13.9883 161.897 13.7287 162.836 13.7287C163.049 13.7287 163.288 13.7394 163.551 13.7607C163.821 13.7749 164.045 13.7998 164.223 13.8354V17.3887C164.06 17.3318 163.8 17.282 163.444 17.2394C163.096 17.1896 162.758 17.1647 162.431 17.1647C161.726 17.1647 161.093 17.3176 160.531 17.6235C159.976 17.9223 159.539 18.3384 159.219 18.872C158.898 19.4055 158.738 20.0209 158.738 20.718V30.3537H154.876Z" fill="white"/>
<path d="M144.921 30.6738C143.277 30.6738 141.858 30.3323 140.663 29.6494C139.475 28.9594 138.561 27.9848 137.921 26.7256C137.28 25.4594 136.96 23.969 136.96 22.2546C136.96 20.5686 137.28 19.0889 137.921 17.8156C138.568 16.5351 139.471 15.5392 140.631 14.8278C141.79 14.1093 143.153 13.75 144.718 13.75C145.728 13.75 146.681 13.9136 147.578 14.2409C148.481 14.561 149.278 15.059 149.968 15.7348C150.665 16.4106 151.213 17.2714 151.611 18.3171C152.01 19.3557 152.209 20.5935 152.209 22.0305V23.215H138.774V20.6113H148.506C148.499 19.8715 148.339 19.2134 148.026 18.6372C147.713 18.0539 147.275 17.595 146.713 17.2607C146.158 16.9263 145.511 16.7592 144.771 16.7592C143.982 16.7592 143.288 16.9512 142.69 17.3354C142.093 17.7124 141.627 18.2104 141.293 18.8293C140.965 19.4411 140.798 20.1133 140.791 20.8461V23.1189C140.791 24.0722 140.965 24.8903 141.314 25.5732C141.662 26.249 142.15 26.7683 142.776 27.1311C143.402 27.4868 144.135 27.6647 144.974 27.6647C145.536 27.6647 146.045 27.5864 146.5 27.4299C146.955 27.2663 147.35 27.028 147.684 26.715C148.019 26.402 148.271 26.0143 148.442 25.5519L152.049 25.9573C151.821 26.9106 151.387 27.7429 150.747 28.4543C150.114 29.1586 149.303 29.7063 148.314 30.0976C147.325 30.4817 146.194 30.6738 144.921 30.6738Z" fill="white"/>
<path d="M131.93 30.5884C131.282 30.5884 130.727 30.3608 130.265 29.9055C129.803 29.4502 129.575 28.8954 129.582 28.2409C129.575 27.6006 129.803 27.0529 130.265 26.5976C130.727 26.1423 131.282 25.9147 131.93 25.9147C132.556 25.9147 133.1 26.1423 133.562 26.5976C134.032 27.0529 134.27 27.6006 134.277 28.2409C134.27 28.6748 134.156 29.0696 133.936 29.4253C133.722 29.781 133.438 30.0656 133.082 30.279C132.734 30.4853 132.349 30.5884 131.93 30.5884Z" fill="white"/>
<path d="M115.703 20.75V30.3537H111.84V13.9634H115.532V16.7485H115.724C116.101 15.8308 116.702 15.1017 117.528 14.561C118.36 14.0204 119.388 13.75 120.612 13.75C121.743 13.75 122.728 13.9919 123.567 14.4756C124.414 14.9594 125.068 15.6601 125.531 16.5778C126 17.4955 126.231 18.6088 126.224 19.9177V30.3537H122.361V20.5153C122.361 19.4197 122.077 18.5625 121.508 17.9436C120.946 17.3247 120.167 17.0153 119.171 17.0153C118.495 17.0153 117.894 17.1647 117.368 17.4634C116.848 17.7551 116.439 18.1784 116.14 18.7333C115.849 19.2881 115.703 19.9604 115.703 20.75Z" fill="white"/>
<path d="M97.993 20.75V30.3537H94.1302V13.9634H97.8222V16.7485H98.0143C98.3913 15.8308 98.9925 15.1017 99.8177 14.561C100.65 14.0204 101.678 13.75 102.901 13.75C104.033 13.75 105.018 13.9919 105.857 14.4756C106.704 14.9594 107.358 15.6601 107.821 16.5778C108.29 17.4955 108.521 18.6088 108.514 19.9177V30.3537H104.651V20.5153C104.651 19.4197 104.367 18.5625 103.798 17.9436C103.236 17.3247 102.457 17.0153 101.461 17.0153C100.785 17.0153 100.184 17.1647 99.6576 17.4634C99.1383 17.7551 98.7292 18.1784 98.4305 18.7333C98.1388 19.2881 97.993 19.9604 97.993 20.75Z" fill="white"/>
<path d="M82.193 30.6845C81.1544 30.6845 80.2189 30.4995 79.3866 30.1296C78.5614 29.7526 77.9069 29.1977 77.4232 28.465C76.9466 27.7322 76.7083 26.8288 76.7083 25.7546C76.7083 24.8298 76.879 24.0651 77.2205 23.4604C77.5619 22.8557 78.0279 22.372 78.6183 22.0092C79.2088 21.6464 79.8739 21.3725 80.6137 21.1875C81.3607 20.9955 82.1326 20.8567 82.9293 20.7714C83.8897 20.6718 84.6686 20.5829 85.2662 20.5046C85.8638 20.4192 86.2977 20.2912 86.568 20.1205C86.8455 19.9426 86.9842 19.6687 86.9842 19.2988V19.2348C86.9842 18.4309 86.7459 17.8085 86.2692 17.3674C85.7926 16.9263 85.1061 16.7058 84.2098 16.7058C83.2636 16.7058 82.5131 16.9121 81.9583 17.3247C81.4105 17.7373 81.0406 18.2246 80.8485 18.7866L77.2418 18.2744C77.5264 17.2785 77.9959 16.4462 78.6503 15.7775C79.3048 15.1017 80.1051 14.5966 81.0512 14.2622C81.9974 13.9208 83.0431 13.75 84.1884 13.75C84.9781 13.75 85.7642 13.8425 86.5467 14.0275C87.3292 14.2124 88.0441 14.5183 88.6915 14.9451C89.3388 15.3649 89.8582 15.9375 90.2494 16.6631C90.6478 17.3887 90.847 18.2958 90.847 19.3842V30.3537H87.1336V28.1022H87.0055C86.7708 28.5574 86.44 28.9843 86.0131 29.3826C85.5934 29.7739 85.0634 30.0905 84.4232 30.3323C83.7901 30.5671 83.0467 30.6845 82.193 30.6845ZM83.1961 27.8461C83.9715 27.8461 84.6437 27.6931 85.2128 27.3872C85.7819 27.0742 86.2194 26.6616 86.5253 26.1494C86.8383 25.6372 86.9948 25.0788 86.9948 24.4741V22.5427C86.8739 22.6423 86.6676 22.7348 86.3759 22.8201C86.0914 22.9055 85.7713 22.9802 85.4156 23.0442C85.0599 23.1083 84.7078 23.1652 84.3592 23.215C84.0106 23.2648 83.7083 23.3074 83.4522 23.343C82.8759 23.4213 82.3602 23.5493 81.9049 23.7272C81.4496 23.905 81.0904 24.154 80.8272 24.4741C80.5639 24.7871 80.4323 25.1926 80.4323 25.6906C80.4323 26.402 80.692 26.9391 81.2113 27.3019C81.7306 27.6647 82.3922 27.8461 83.1961 27.8461Z" fill="white"/>
<path d="M74.1053 8.50003V30.3537H70.2425V8.50003H74.1053Z" fill="white"/>
<path d="M52.063 36.5V13.9634H55.8618V16.6738H56.0859C56.2851 16.2754 56.5661 15.8522 56.9289 15.404C57.2917 14.9487 57.7825 14.561 58.4015 14.2409C59.0204 13.9136 59.81 13.75 60.7704 13.75C62.0366 13.75 63.1784 14.0737 64.1957 14.7211C65.22 15.3613 66.031 16.311 66.6286 17.5701C67.2333 18.8222 67.5356 20.3588 67.5356 22.1799C67.5356 23.9797 67.2404 25.5092 66.6499 26.7683C66.0595 28.0275 65.2556 28.9878 64.2383 29.6494C63.2211 30.311 62.0686 30.6418 60.781 30.6418C59.842 30.6418 59.063 30.4853 58.4441 30.1723C57.8252 29.8593 57.3273 29.4822 56.9502 29.0412C56.5803 28.593 56.2922 28.1697 56.0859 27.7714H55.9258V36.5H52.063ZM55.8511 22.1586C55.8511 23.2185 56.0005 24.1469 56.2993 24.9436C56.6052 25.7404 57.0427 26.3628 57.6118 26.811C58.188 27.2521 58.8852 27.4726 59.7033 27.4726C60.5569 27.4726 61.2719 27.2449 61.8481 26.7897C62.4243 26.3273 62.8583 25.6977 63.1499 24.9009C63.4487 24.0971 63.5981 23.183 63.5981 22.1586C63.5981 21.1413 63.4523 20.2378 63.1606 19.4482C62.8689 18.6586 62.435 18.0397 61.8588 17.5915C61.2825 17.1433 60.564 16.9192 59.7033 16.9192C58.8781 16.9192 58.1774 17.1362 57.6011 17.5701C57.0249 18.0041 56.5874 18.6123 56.2886 19.3948C55.997 20.1774 55.8511 21.0986 55.8511 22.1586Z" fill="white"/>
</svg>
